<?xml version="1.0" encoding="UTF-8"?>
<svg xmlns="http://www.w3.org/2000/svg" xmlns:xlink="http://www.w3.org/1999/xlink" width="64px" height="64px" viewBox="0 0 64 64" version="1.1">
<g id="surface1">
<path style=" stroke:none;fill-rule:evenodd;fill:rgb(10.980392%,15.294118%,29.803923%);fill-opacity:1;" d="M 56.269531 21.34375 C 56.117188 21.332031 55.953125 21.332031 55.78125 21.332031 L 49.050781 21.332031 C 43.535156 21.332031 38.820312 25.671875 38.820312 31.332031 C 38.820312 36.992188 43.535156 41.332031 49.050781 41.332031 L 55.78125 41.332031 C 55.953125 41.332031 56.117188 41.332031 56.269531 41.324219 C 58.507812 41.183594 60.488281 39.429688 60.65625 36.980469 C 60.667969 36.820312 60.667969 36.648438 60.667969 36.488281 L 60.667969 26.179688 C 60.667969 26.019531 60.667969 25.84375 60.65625 25.683594 C 60.488281 23.238281 58.507812 21.484375 56.269531 21.34375 Z M 48.457031 34 C 49.878906 34 51.027344 32.804688 51.027344 31.332031 C 51.027344 29.859375 49.878906 28.667969 48.457031 28.667969 C 47.039062 28.667969 45.886719 29.859375 45.886719 31.332031 C 45.886719 32.804688 47.039062 34 48.457031 34 Z M 48.457031 34 "/>
<path style=" stroke:none;fill-rule:evenodd;fill:rgb(10.980392%,15.294118%,29.803923%);fill-opacity:1;" d="M 55.78125 45.332031 C 56.179688 45.324219 56.480469 45.691406 56.371094 46.074219 C 55.835938 47.972656 54.988281 49.59375 53.625 50.957031 C 51.628906 52.953125 49.097656 53.835938 45.96875 54.257812 C 42.933594 54.667969 39.050781 54.667969 34.152344 54.667969 L 28.515625 54.667969 C 23.617188 54.667969 19.734375 54.667969 16.695312 54.257812 C 13.570312 53.835938 11.039062 52.953125 9.042969 50.957031 C 7.046875 48.960938 6.160156 46.429688 5.742188 43.304688 C 5.332031 40.265625 5.332031 36.382812 5.332031 31.484375 L 5.332031 31.183594 C 5.332031 26.28125 5.332031 22.402344 5.742188 19.363281 C 6.160156 16.234375 7.046875 13.707031 9.042969 11.710938 C 11.039062 9.714844 13.570312 8.828125 16.695312 8.410156 C 19.734375 8 23.617188 8 28.515625 8 L 34.152344 8 C 39.050781 8 42.933594 8 45.96875 8.410156 C 49.097656 8.828125 51.628906 9.714844 53.625 11.710938 C 54.988281 13.074219 55.835938 14.691406 56.371094 16.59375 C 56.480469 16.976562 56.179688 17.34375 55.78125 17.332031 L 49.050781 17.332031 C 41.488281 17.332031 34.820312 23.308594 34.820312 31.332031 C 34.820312 39.359375 41.488281 45.332031 49.050781 45.332031 Z M 15.332031 18.667969 C 14.230469 18.667969 13.332031 19.5625 13.332031 20.667969 C 13.332031 21.769531 14.230469 22.667969 15.332031 22.667969 L 26 22.667969 C 27.105469 22.667969 28 21.769531 28 20.667969 C 28 19.5625 27.105469 18.667969 26 18.667969 Z M 15.332031 18.667969 "/>
</g>
</svg>
