<?xml version="1.0" encoding="UTF-8"?>
<svg xmlns="http://www.w3.org/2000/svg" xmlns:xlink="http://www.w3.org/1999/xlink" width="64px" height="64px" viewBox="0 0 64 64" version="1.1">
<g id="surface1">
<path style=" stroke:none;fill-rule:nonzero;fill:rgb(10.980392%,15.294118%,29.803923%);fill-opacity:1;" d="M 53.332031 48 C 53.332031 53.890625 43.78125 58.667969 32 58.667969 C 20.21875 58.667969 10.667969 53.890625 10.667969 48 L 10.667969 37.265625 C 12.007812 38.910156 13.90625 40.273438 16.019531 41.332031 C 20.214844 43.425781 25.867188 44.667969 32 44.667969 C 38.132812 44.667969 43.785156 43.425781 47.980469 41.332031 C 50.09375 40.273438 51.992188 38.910156 53.332031 37.265625 Z M 53.332031 48 "/>
<path style=" stroke:none;fill-rule:nonzero;fill:rgb(10.980392%,15.294118%,29.803923%);fill-opacity:1;" d="M 32 28.667969 C 38.132812 28.667969 43.785156 27.425781 47.980469 25.332031 C 50.09375 24.273438 51.992188 22.910156 53.332031 21.265625 L 53.332031 32 C 53.332031 33.332031 48.570312 36.242188 46.191406 37.753906 C 42.664062 39.519531 37.648438 40.667969 32 40.667969 C 26.351562 40.667969 21.335938 39.519531 17.808594 37.753906 C 14.667969 36.183594 10.667969 33.332031 10.667969 32 L 10.667969 21.265625 C 12.007812 22.910156 13.90625 24.273438 16.019531 25.332031 C 20.214844 27.425781 25.867188 28.667969 32 28.667969 Z M 32 28.667969 "/>
<path style=" stroke:none;fill-rule:nonzero;fill:rgb(10.980392%,15.294118%,29.803923%);fill-opacity:1;" d="M 46.191406 21.753906 C 42.664062 23.519531 37.648438 24.667969 32 24.667969 C 26.351562 24.667969 21.335938 23.519531 17.808594 21.753906 C 16.4375 21.214844 13.351562 19.507812 11.203125 16.746094 C 10.839844 16.273438 10.683594 15.675781 10.773438 15.089844 C 10.835938 14.691406 10.917969 14.285156 11.027344 14.03125 C 12.875 9.082031 21.5625 5.332031 32 5.332031 C 42.4375 5.332031 51.125 9.082031 52.972656 14.03125 C 53.082031 14.285156 53.164062 14.691406 53.226562 15.089844 C 53.316406 15.675781 53.160156 16.273438 52.796875 16.746094 C 50.648438 19.507812 47.5625 21.214844 46.191406 21.753906 Z M 46.191406 21.753906 "/>
</g>
</svg>
