<?xml version="1.0" encoding="UTF-8"?>
<svg xmlns="http://www.w3.org/2000/svg" xmlns:xlink="http://www.w3.org/1999/xlink" width="64px" height="64px" viewBox="0 0 64 64" version="1.1">
<g id="surface1">
<path style=" stroke:none;fill-rule:nonzero;fill:rgb(0%,0%,0%);fill-opacity:1;" d="M 10.667969 10.667969 C 7.722656 10.667969 5.332031 13.054688 5.332031 16 L 5.332031 29.332031 L 21.679688 29.332031 C 22.90625 24.640625 27.148438 21.332031 32 21.332031 C 36.859375 21.347656 41.097656 24.632812 42.320312 29.332031 L 58.667969 29.332031 L 58.667969 16 C 58.667969 13.054688 56.277344 10.667969 53.332031 10.667969 Z M 32 26.667969 C 29.054688 26.667969 26.667969 29.054688 26.667969 32 C 26.667969 34.945312 29.054688 37.332031 32 37.332031 C 34.945312 37.332031 37.332031 34.945312 37.332031 32 C 37.332031 29.054688 34.945312 26.667969 32 26.667969 M 5.332031 34.667969 L 5.332031 48 C 5.332031 50.945312 7.722656 53.332031 10.667969 53.332031 L 53.332031 53.332031 C 56.277344 53.332031 58.667969 50.945312 58.667969 48 L 58.667969 34.667969 L 42.320312 34.667969 C 41.097656 39.367188 36.859375 42.652344 32 42.667969 C 27.140625 42.652344 22.902344 39.367188 21.679688 34.667969 Z M 5.332031 34.667969 "/>
</g>
</svg>
