<svg xmlns="http://www.w3.org/2000/svg" role="img" viewBox="0 0 24 24" aria-label="European Wallet">
	<title>European Union</title>
	<circle cx="12" cy="13.5" r="10.5" fill="#003399"/>
	<g fill="#FFCC00">
		<path d="M12 3.65l.38 1.17h1.23l-1 .73.38 1.17L12 6l-.99.72.38-1.17-1-.73h1.23z"/>
		<path d="M16.18 4.77l.38 1.17h1.23l-1 .73.38 1.17-1-.72-.99.72.38-1.17-1-.73h1.23z"/>
		<path d="M19.23 7.82l.38 1.17h1.23l-1 .73.38 1.17-1-.72-.99.72.38-1.17-1-.73h1.23z"/>
		<path d="M20.35 12l.38 1.17h1.23l-1 .73.38 1.17-1-.72-.99.72.38-1.17-1-.73h1.23z"/>
		<path d="M19.23 16.18l.38 1.17h1.23l-1 .73.38 1.17-1-.72-.99.72.38-1.17-1-.73h1.23z"/>
		<path d="M16.18 19.23l.38 1.17h1.23l-1 .73.38 1.17-1-.72-.99.72.38-1.17-1-.73h1.23z"/>
		<path d="M12 20.35l.38 1.17h1.23l-1 .73.38 1.17L12 22.7l-.99.72.38-1.17-1-.73h1.23z"/>
		<path d="M7.82 19.23l.38 1.17h1.23l-1 .73.38 1.17-1-.72-.99.72.38-1.17-1-.73h1.23z"/>
		<path d="M4.77 16.18l.38 1.17h1.23l-1 .73.38 1.17-1-.72-.99.72.38-1.17-1-.73h1.23z"/>
		<path d="M3.65 12l.38 1.17h1.23l-1 .73.38 1.17-1-.72-.99.72.38-1.17-1-.73h1.23z"/>
		<path d="M4.77 7.82l.38 1.17h1.23l-1 .73.38 1.17-1-.72-.99.72.38-1.17-1-.73h1.23z"/>
		<path d="M7.82 4.77l.38 1.17h1.23l-1 .73.38 1.17-1-.72-.99.72.38-1.17-1-.73h1.23z"/>
	</g>
</svg>